<svg width="24" height="24" viewBox="0 0 24 24" fill="none" xmlns="http://www.w3.org/2000/svg">
<path d="M21 7.09088H19.3636V16.9091H21V7.09088Z" fill="white"/>
<path d="M4.63636 7.09088H3V16.9091H4.63636V7.09088Z" fill="white"/>
<path d="M16.9091 5.45453H7.09092C6.18847 5.45453 5.45456 6.18844 5.45456 7.09089V16.9091C5.45456 17.8107 6.18847 18.5454 7.09092 18.5454H16.9091C17.8116 18.5454 18.5455 17.8107 18.5455 16.9091V7.09089C18.5455 6.18762 17.8116 5.45453 16.9091 5.45453ZM16.0909 13.6363C16.0909 14.5396 15.3578 15.2727 14.4546 15.2727C13.5513 15.2727 12.8182 14.5396 12.8182 13.6363C12.8182 12.7331 13.5513 12 14.4546 12V9.86207L11.1818 10.9535V14.4545C11.1818 15.3578 10.4487 16.0909 9.54547 16.0909C8.6422 16.0909 7.9091 15.3578 7.9091 14.4545C7.9091 13.5513 8.6422 12.8182 9.54547 12.8182V10.3636C9.54547 10.011 9.77047 9.69844 10.1051 9.58717L15.0142 7.9508C15.2637 7.86735 15.537 7.90907 15.7514 8.06371C15.9649 8.21671 16.0909 8.46462 16.0909 8.72726V13.6363Z" fill="white"/>
</svg>
