<svg width="24" height="24" viewBox="0 0 24 24" fill="none" xmlns="http://www.w3.org/2000/svg">
<path fill-rule="evenodd" clip-rule="evenodd" d="M8.293 0.292743C8.57901 0.00674791 9.009 -0.0782588 9.383 0.0757481C9.75699 0.229755 10 0.594745 10 0.999744V16.9997C10 17.4038 9.75699 17.7687 9.383 17.9227C9.009 18.0768 8.57901 17.9917 8.293 17.7058L4 12.9997H1C0.450012 12.9997 0 12.5497 0 11.9997V5.99974C0 5.44974 0.450012 4.99974 1 4.99974H4L8.293 0.292743ZM12 7.99974V5.99974C13.654 5.99974 15 7.34475 15 8.99974C15 10.6538 13.654 11.9997 12 11.9997V9.99974C12.551 9.99974 13 9.55074 13 8.99974C13 8.44875 12.551 7.99974 12 7.99974Z" transform="translate(4.5 3.00075)" fill="white"/>
</svg>
