<svg width="24" height="24" viewBox="0 0 24 24" fill="none" xmlns="http://www.w3.org/2000/svg">
<path fill-rule="evenodd" clip-rule="evenodd" d="M9.383 0.0757482C9.009 -0.0782588 8.57901 0.00674791 8.293 0.292743L4 4.99875H1C0.450012 4.99875 0 5.44974 0 5.99875V11.9988C0 12.5488 0.450012 12.9988 1 12.9988H4L8.293 17.7067C8.57901 17.9927 9.009 18.0777 9.383 17.9237C9.75699 17.7687 10 17.4038 10 16.9988V0.998752C10 0.595752 9.75699 0.228748 9.383 0.0757482ZM12 1.99875V3.99875C14.757 3.99875 17 6.24276 17 8.99875C17 11.7558 14.757 13.9988 12 13.9988V15.9988C15.86 15.9988 19 12.8597 19 8.99875C19 5.13976 15.86 1.99875 12 1.99875ZM12 5.99875C13.654 5.99875 15 7.34575 15 8.99875C15 10.6538 13.654 11.9988 12 11.9988V9.99875C12.551 9.99875 13 9.54975 13 8.99875C13 8.44776 12.551 7.99875 12 7.99875V5.99875Z" transform="translate(4.5 3.00026)" fill="white"/>
</svg>
