<svg width="24" height="24" viewBox="0 0 24 24" fill="none" xmlns="http://www.w3.org/2000/svg">
<path fill-rule="evenodd" clip-rule="evenodd" d="M11.707 1.00041V2.75841L1.90302 12.5614C1.789 12.3994 1.707 12.2124 1.707 12.0004V6.00041C1.707 5.45041 2.15701 5.00041 2.707 5.00041H5.707L10 0.293413C10.286 0.00641011 10.716 -0.0785966 11.09 0.0764174C11.464 0.230409 11.707 0.596406 11.707 1.00041ZM0 17.2934L17 0.293413L18.414 1.70741L11.707 8.41441V17.0004C11.707 17.4044 11.464 17.7694 11.09 17.9234C10.716 18.0794 10.286 17.9944 10 17.7074L6.38101 13.7404L1.414 18.7074L0 17.2934Z" transform="translate(2.793 3)" fill="white"/>
</svg>
