<svg width="24" height="24" viewBox="0 0 24 24" fill="none" xmlns="http://www.w3.org/2000/svg">
<path fill-rule="evenodd" clip-rule="evenodd" d="M1 0C0.447693 0 0 0.447723 0 1V4C0 4.55228 0.447693 5 1 5H4C4.55231 5 5 4.55228 5 4V1C5 0.447723 4.55231 0 4 0H1ZM8 0C7.44769 0 7 0.447723 7 1V4C7 4.55228 7.44769 5 8 5H19C19.5523 5 20 4.55228 20 4V1C20 0.447723 19.5523 0 19 0H8ZM7 8C7 7.44772 7.44769 7 8 7H19C19.5523 7 20 7.44772 20 8V11C20 11.5523 19.5523 12 19 12H8C7.44769 12 7 11.5523 7 11V8ZM1 7C0.447693 7 0 7.44772 0 8V11C0 11.5523 0.447693 12 1 12H4C4.55231 12 5 11.5523 5 11V8C5 7.44772 4.55231 7 4 7H1ZM7 15C7 14.4477 7.44769 14 8 14H19C19.5523 14 20 14.4477 20 15V18C20 18.5523 19.5523 19 19 19H8C7.44769 19 7 18.5523 7 18V15ZM1 14C0.447693 14 0 14.4477 0 15V18C0 18.5523 0.447693 19 1 19H4C4.55231 19 5 18.5523 5 18V15C5 14.4477 4.55231 14 4 14H1Z" transform="translate(2 2.5)" fill="white"/>
</svg>
