<svg width="24" height="24" viewBox="0 0 24 24" fill="none" xmlns="http://www.w3.org/2000/svg">
<path fill-rule="evenodd" clip-rule="evenodd" d="M15.9624 7.20001H18V10.8H15.9624C15.7536 11.6127 15.4125 12.3696 14.9526 13.0437L16.3188 14.4099L14.4099 16.3197L13.0437 14.9535C12.3696 15.4125 11.6109 15.7536 10.8 15.9633V18H7.2V15.9633C6.3891 15.7527 5.6304 15.4125 4.9563 14.9535L3.5901 16.3197L1.6812 14.4099L3.04739 13.0437C2.58749 12.3696 2.2464 11.6127 2.0376 10.8H0V7.20001H2.0376C2.2464 6.38821 2.58749 5.6304 3.04739 4.9563L1.6812 3.59009L3.5901 1.68121L4.9563 3.04651C5.6304 2.58749 6.3891 2.2482 7.2 2.03671V0H10.8V2.03671C11.6109 2.2482 12.3696 2.58749 13.0437 3.04739L14.4099 1.68121L16.3188 3.59009L14.9526 4.9563C15.4125 5.63129 15.7536 6.3891 15.9624 7.20001ZM9.00001 13.5C6.51472 13.5 4.50001 11.4853 4.50001 9C4.50001 6.51474 6.51472 4.5 9.00001 4.5C11.4853 4.5 13.5 6.51474 13.5 9C13.5 11.4853 11.4853 13.5 9.00001 13.5Z" transform="translate(3 3)" fill="white"/>
</svg>
