<svg width="24" height="24" viewBox="0 0 24 24" fill="none" xmlns="http://www.w3.org/2000/svg">
<path d="M19.2 4.79999H4.8C3.81 4.79999 3 5.60999 3 6.59999V17.4C3 18.39 3.81 19.2 4.8 19.2H19.2C20.19 19.2 21 18.39 21 17.4V6.59999C21 5.60999 20.19 4.79999 19.2 4.79999ZM11.1 10.2H8.4C7.9041 10.2 7.5 10.6041 7.5 11.1V12.9C7.5 13.3968 7.9041 13.8 8.4 13.8H11.1V15.6H8.4C6.9114 15.6 5.7 14.3886 5.7 12.9V11.1C5.7 9.61139 6.9114 8.39999 8.4 8.39999H11.1V10.2ZM18.3 10.2H15.6C15.1041 10.2 14.7 10.6041 14.7 11.1V12.9C14.7 13.3968 15.1041 13.8 15.6 13.8H18.3V15.6H15.6C14.1114 15.6 12.9 14.3886 12.9 12.9V11.1C12.9 9.61139 14.1114 8.39999 15.6 8.39999H18.3V10.2Z" fill="white"/>
</svg>
